<?xml version="1.0" encoding="UTF-8"?>
<svg version="1.1" xmlns="http://www.w3.org/2000/svg" width="192" height="192">
<path d="M0 0 C63.36 0 126.72 0 192 0 C192 63.36 192 126.72 192 192 C128.64 192 65.28 192 0 192 C0 128.64 0 65.28 0 0 Z " fill="#0A2A23" transform="translate(0,0)"/>
<path d="M0 0 C1.95586029 0.01273453 1.95586029 0.01273453 3.95123291 0.02572632 C7.41084297 0.04859002 10.86893138 0.10748642 14.32794189 0.1739502 C17.8603456 0.23542918 21.39299627 0.26275296 24.92578125 0.29296875 C31.85218595 0.35723619 38.77758235 0.45958269 45.703125 0.5859375 C45.91172328 5.91264348 45.18731379 8.42426756 41.703125 12.5859375 C39.5625 13.25390625 39.5625 13.25390625 37.703125 13.5859375 C37.62835938 14.15441406 37.55359375 14.72289062 37.4765625 15.30859375 C36.43506331 21.42484878 34.43960852 25.49533809 29.703125 29.5859375 C24.66215204 32.86256992 18.46525087 32.18078383 12.703125 31.5859375 C9.56008511 30.38661965 7.50597602 28.6108537 5.41796875 25.9453125 C2.90281776 23.95152539 1.03804105 24.43069174 -2.109375 24.6484375 C-6.17324444 24.74169054 -8.09288997 24.6789833 -11.859375 22.9609375 C-16.27886206 18.65477063 -17.60549217 14.71018797 -17.79296875 8.7109375 C-15.44846191 -1.33167447 -9.00778272 -0.21966194 0 0 Z " fill="#F8EDE6" transform="translate(71.296875,-0.5859375)"/>
<path d="M0 0 C0.86238281 0.00064453 1.72476563 0.00128906 2.61328125 0.00195312 C8.96841518 0.04670759 8.96841518 0.04670759 11.25 1.1875 C11.25 12.4075 11.25 23.6275 11.25 35.1875 C-5.91 35.1875 -23.07 35.1875 -40.75 35.1875 C-37.98561395 22.74776278 -33.62348234 13.94165401 -23.15234375 6.2890625 C-15.39646733 1.49281916 -9.04218458 -0.13074696 0 0 Z " fill="#EADCCE" transform="translate(180.75,156.8125)"/>
<path d="M0 0 C1.32 0 2.64 0 4 0 C4 15.84 4 31.68 4 48 C2.68 48 1.36 48 0 48 C-0.33 46.68 -0.66 45.36 -1 44 C-1.598125 44.639375 -2.19625 45.27875 -2.8125 45.9375 C-6.33630403 49.2599438 -9.93123205 49.46326489 -14.58203125 49.41015625 C-20.11884493 48.47095522 -23.80761219 44.63953323 -27 40.25 C-28.79327134 34.42186815 -29.09199932 29.22599861 -26.375 23.6875 C-21.71567706 18.41510825 -18.30457708 15.29977968 -11.18359375 14.85546875 C-6.88566598 15.13994697 -3.97302915 17.02697085 -1 20 C-0.67 13.4 -0.34 6.8 0 0 Z " fill="#F3F5F4" transform="translate(134,78)"/>
<path d="M0 0 C5.33105725 4.29446278 6.76215301 7.86864249 7.66015625 14.5078125 C8.52604889 17.8911016 10.20477831 19.14328954 13.07421875 20.98046875 C13.99654297 21.48513672 13.99654297 21.48513672 14.9375 22 C16.030625 22.598125 17.12375 23.19625 18.25 23.8125 C18.25 24.4725 18.25 25.1325 18.25 25.8125 C-1.22 25.8125 -20.69 25.8125 -40.75 25.8125 C-39.70763751 19.55832506 -39.26143164 18.67944141 -34.75 14.8125 C-31.63017607 12.73261738 -30.51713506 12.5964163 -26.9375 12.25 C-23.65709222 11.66829978 -22.1835048 11.29645579 -19.9375 8.7890625 C-18.94410285 7.19031396 -17.97605733 5.5755088 -17.03515625 3.9453125 C-13.27162454 -2.30054863 -6.21106163 -2.68204934 0 0 Z " fill="#E8DBCD" transform="translate(46.75,166.1875)"/>
<path d="M0 0 C3.70251252 2.44208273 6.86886819 4.96195352 8.9375 8.9375 C9.2675 11.9075 9.5975 14.8775 9.9375 17.9375 C1.0275 17.9375 -7.8825 17.9375 -17.0625 17.9375 C-14.88190167 24.78575895 -14.88190167 24.78575895 -11.0625 26.9375 C-8.64962654 27.21673967 -8.64962654 27.21673967 -6.0625 27.125 C-5.19625 27.11855469 -4.33 27.11210938 -3.4375 27.10546875 C-0.91322535 27.02580437 -0.91322535 27.02580437 1.9375 25.9375 C2.2675 24.9475 2.5975 23.9575 2.9375 22.9375 C4.5875 22.9375 6.2375 22.9375 7.9375 22.9375 C6.58594718 27.36076378 4.73859562 29.34162982 0.9375 31.9375 C-4.43200705 33.72733568 -9.25985333 33.82181724 -14.375 31.3125 C-18.54660919 27.62596165 -21.55981542 23.57837263 -22.3359375 17.95703125 C-22.62236736 11.73269003 -21.24709205 7.60695663 -17.0625 2.9375 C-11.78595544 -1.5118428 -6.46736 -2.24377796 0 0 Z " fill="#E9ECEC" transform="translate(92.0625,94.0625)"/>
<path d="M0 0 C4.5495366 0.31268293 6.11608262 0.88838497 9.24609375 4.265625 C11.97427379 8.32287349 14.625 12.45344937 14.625 17.4375 C10.335 17.4375 6.045 17.4375 1.625 17.4375 C1.625 35.5875 1.625 53.7375 1.625 72.4375 C2.615 72.4375 3.605 72.4375 4.625 72.4375 C4.625 73.0975 4.625 73.7575 4.625 74.4375 C1.655 74.4375 -1.315 74.4375 -4.375 74.4375 C-3.88 73.4475 -3.88 73.4475 -3.375 72.4375 C-2.715 72.4375 -2.055 72.4375 -1.375 72.4375 C-1.375 54.2875 -1.375 36.1375 -1.375 17.4375 C-5.665 17.4375 -9.955 17.4375 -14.375 17.4375 C-8.86023681 0.89321043 -8.86023681 0.89321043 0 0 Z " fill="#E8EBEA" transform="translate(57.375,52.5625)"/>
<path d="M0 0 C3.42945937 1.37178375 4.72964835 2.62150769 6.875 5.625 C8.5501862 10.65055859 8.38434039 15.0335563 6.125 19.875 C4.45301867 22.29008414 2.65605365 23.77527444 -0.12109375 24.7265625 C-4.25639936 25.43786296 -6.51622355 25.22397058 -10.375 23.4375 C-14.09582184 19.98245115 -15.70486412 17.02378891 -16.4375 12 C-15.75880016 7.34605823 -13.39860381 4.49850408 -10.25 1.125 C-6.87409548 -0.56295226 -3.65420512 -0.5241091 0 0 Z " fill="#113029" transform="translate(126,98)"/>
<path d="M0 0 C3.71661318 0.76285164 5.26581504 2.42089078 7.37890625 5.48828125 C7.70890625 7.13828125 8.03890625 8.78828125 8.37890625 10.48828125 C1.11890625 10.48828125 -6.14109375 10.48828125 -13.62109375 10.48828125 C-11.95073307 2.13647786 -8.23867119 -0.42973695 0 0 Z " fill="#0E2E27" transform="translate(88.62109375,97.51171875)"/>
<path d="M0 0 C0.33 0 0.66 0 1 0 C1.33 17.49 1.66 34.98 2 53 C2.99 53.33 3.98 53.66 5 54 C5 54.66 5 55.32 5 56 C2.03 56 -0.94 56 -4 56 C-3.01 55.01 -2.02 54.02 -1 53 C-0.52778579 50.56247751 -0.52778579 50.56247751 -0.56762695 47.79418945 C-0.53793571 46.20287956 -0.53793571 46.20287956 -0.50764465 44.579422 C-0.50125473 43.43559555 -0.49486481 42.2917691 -0.48828125 41.11328125 C-0.46135445 39.35506294 -0.46135445 39.35506294 -0.43388367 37.56132507 C-0.37963346 33.81175349 -0.34583698 30.06231026 -0.3125 26.3125 C-0.27934001 23.77276854 -0.2448516 21.23305405 -0.20898438 18.69335938 C-0.12389846 12.46235468 -0.05561091 6.23133367 0 0 Z " fill="#FFFFFF" transform="translate(57,71)"/>
<path d="M0 0 C3.1875 0.3125 3.1875 0.3125 6 1 C6 1.66 6 2.32 6 3 C3.03 3 0.06 3 -3 3 C-2.01 2.01 -1.02 1.02 0 0 Z " fill="#ECEFEE" transform="translate(56,124)"/>
</svg>
